# xmcd CD database file
#
# Track frame offsets:
#	150
#	17232
#	32352
#	43725
#	57135
#	71190
#	86500
#	101060
#	114792
#	126845
#	138997
#	150442
#	169107
#	177995
#	191712
#	205637
#	219677
#	236620
#	244460
#	254050
#	267582
#	275995
#	287307
#
# Disc length: 4004 seconds
#
# Revision: 4
# Processed by: cddbd v1.5.2PL0 Copyright (c) Steve Scherf et al.
# Submitted via: CDex 1.51
#
DISCID=5a0fa217
DTITLE=Various Artist - Golden Country Groups - Disc 4
DYEAR=1988
DGENRE=Country
TTITLE0=Alabama - Country Side Of Life
TTITLE1=Waylon Jennings And Jessi Colter - Medley: The Wild Side Of Life/It Wasn't God Who Made Honky-Tonk Angels
TTITLE2=Waylon Jennings And Willie Nelson - Mamas, Don't Let Your Babies Grow Up To Be Cowboys
TTITLE3=Kenny Rogers And The First Edition - Ruby, Don't Take Your Love To Town
TTITLE4=Conway Twitty And Loretta Lynn - Back Street Affair
TTITLE5=Alabama - If You're Gonna Play In Texas (You Gotta Have A Fiddle In The Band)
TTITLE6=The Bellamy Brothers - If I Said You Had A Beautiful Body, Would You Hold It Against Me
TTITLE7=The Younger Brothers - Nothing But The Radio On
TTITLE8=Jimmy Dean And Dottie West - Sweet Thang
TTITLE9=Kenny Rogers And The First Edition - Elvira
TTITLE10=Loretta Lynn And Conway Twitty - Louisiana Woman, Mississippi Man
TTITLE11=The Oak Ridge Boys - Put Your Hand In The Hand
TTITLE12=Roy Rogers And Dale Evans - On The Wings Of A Dove
TTITLE13=Porter Wagoner And Dolly Parton - Daddy Was An Old-Time Preacher Man
TTITLE14=The Browns Featuring Jim Ed Brown - How Great Thou Art
TTITLE15=The Oak Ridge Boys - Oh, Happy Day
TTITLE16=The Anita Kerr Singers - Just A Closer Walk With Thee
TTITLE17=The Browns Featuring Jim Ed Brown - The Church In The Wildwood
TTITLE18=The Oak Ridge Boys - This Ole House
TTITLE19=The Blackwood Brothers Quartet - Precious Memories
TTITLE20=Roy Rogers And Dale Evans - I'll Fly Away
TTITLE21=The Oak Ridge Boys - Daddy Sang Bass
TTITLE22=The Blackwood Brothers With George Veverly Shea - Amazing Grace
EXTD=YEAR: 1988
EXTT0=
EXTT1=
EXTT2=
EXTT3=
EXTT4=
EXTT5=
EXTT6=
EXTT7=
EXTT8=
EXTT9=
EXTT10=
EXTT11=
EXTT12=
EXTT13=
EXTT14=
EXTT15=
EXTT16=
EXTT17=
EXTT18=
EXTT19=
EXTT20=
EXTT21=
EXTT22=
PLAYORDER=
